{
  "accessors": [
    {
      "bufferView": 2,
      "componentType": 5126,
      "count": 17,
      "max": [
        0.12437599897384644,
        -0.067716002464294434,
        1.112360954284668
      ],
      "min": [
        -0.11159300059080124,
        -1.5236619710922241,
        0.70836299657821655
      ],
      "type": "VEC3"
    },
    {
      "bufferView": 1,
      "componentType": 5126,
      "count": 17,
      "max": [
        0,
        0
      ],
      "min": [
        0,
        0
      ],
      "type": "VEC2"
    },
    {
      "bufferView": 0,
      "componentType": 5125,
      "count": 28,
      "max": [
        16
      ],
      "min": [
        0
      ],
      "type": "SCALAR"
    },
    {
      "bufferView": 2,
      "byteOffset": 204,
      "componentType": 5126,
      "count": 780,
      "max": [
        1.0715080499649048,
        3.2433650493621826,
        1.2710989713668823
      ],
      "min": [
        -1.0715080499649048,
        -2.5310060977935791,
        -1.3711669445037842
      ],
      "type": "VEC3"
    },
    {
      "bufferView": 2,
      "byteOffset": 9564,
      "componentType": 5126,
      "count": 780,
      "max": [
        1,
        1,
        1
      ],
      "min": [
        -1,
        -1,
        -1
      ],
      "type": "VEC3"
    },
    {
      "bufferView": 3,
      "componentType": 5126,
      "count": 780,
      "max": [
        0.98172301054000854,
        1,
        0.99432235956192017,
        1
      ],
      "min": [
        -0.98172587156295776,
        -0.99999302625656128,
        -0.88202792406082153,
        -1
      ],
      "type": "VEC4"
    },
    {
      "bufferView": 1,
      "byteOffset": 136,
      "componentType": 5126,
      "count": 780,
      "max": [
        0.98305797576904297,
        0.95909798145294189
      ],
      "min": [
        0.45609098672866821,
        0.28394299745559692
      ],
      "type": "VEC2"
    },
    {
      "bufferView": 0,
      "byteOffset": 112,
      "componentType": 5125,
      "count": 1170,
      "max": [
        779
      ],
      "min": [
        0
      ],
      "type": "SCALAR"
    },
    {
      "bufferView": 2,
      "byteOffset": 18924,
      "componentType": 5126,
      "count": 14444,
      "max": [
        4.2869181632995605,
        3.4942259788513184,
        1.597154974937439
      ],
      "min": [
        -4.286919116973877,
        -4.5037670135498047,
        -1.6650029420852661
      ],
      "type": "VEC3"
    },
    {
      "bufferView": 2,
      "byteOffset": 192252,
      "componentType": 5126,
      "count": 14444,
      "max": [
        1,
        1,
        1
      ],
      "min": [
        -1,
        -1,
        -1
      ],
      "type": "VEC3"
    },
    {
      "bufferView": 3,
      "byteOffset": 12480,
      "componentType": 5126,
      "count": 14444,
      "max": [
        0.99999946355819702,
        1,
        0.99995797872543335,
        1
      ],
      "min": [
        -0.99999946355819702,
        -1,
        -0.99999856948852539,
        -1
      ],
      "type": "VEC4"
    },
    {
      "bufferView": 1,
      "byteOffset": 6376,
      "componentType": 5126,
      "count": 14444,
      "max": [
        0.99932998418807983,
        0.97877597808837891
      ],
      "min": [
        0.00066999997943639755,
        0.00066999997943639755
      ],
      "type": "VEC2"
    },
    {
      "bufferView": 0,
      "byteOffset": 4792,
      "componentType": 5125,
      "count": 75504,
      "max": [
        14443
      ],
      "min": [
        0
      ],
      "type": "SCALAR"
    }
  ],
  "asset": {
    "extras": {
      "author": "raulgalindo (https://sketchfab.com/estuardorosales)",
      "license": "CC-BY-4.0 (http://creativecommons.org/licenses/by/4.0/)",
      "source": "https://sketchfab.com/models/9730095d1f2c48879b2bf7222c31c841",
      "title": "Pitt Base"
    },
    "generator": "Sketchfab-3.26.3",
    "version": "2.0"
  },
  "bufferViews": [
    {
      "buffer": 0,
      "byteLength": 306808,
      "byteOffset": 0,
      "name": "floatBufferViews",
      "target": 34963
    },
    {
      "buffer": 0,
      "byteLength": 121928,
      "byteOffset": 306808,
      "byteStride": 8,
      "name": "floatBufferViews",
      "target": 34962
    },
    {
      "buffer": 0,
      "byteLength": 365580,
      "byteOffset": 428736,
      "byteStride": 12,
      "name": "floatBufferViews",
      "target": 34962
    },
    {
      "buffer": 0,
      "byteLength": 243584,
      "byteOffset": 794316,
      "byteStride": 16,
      "name": "floatBufferViews",
      "target": 34962
    }
  ],
  "buffers": [
    {
      "byteLength": 1037900,
      "uri": "scene.bin"
    }
  ],
  "images": [
    {
      "uri": "textures/Material_baseColor.png"
    }
  ],
  "materials": [
    {
      "doubleSided": true,
      "name": "Material",
      "pbrMetallicRoughness": {
        "baseColorFactor": [
          1,
          1,
          1,
          1
        ],
        "baseColorTexture": {
          "index": 0,
          "texCoord": 0
        },
        "metallicFactor": 0,
        "roughnessFactor": 0.59999999999999998
      }
    }
  ],
  "meshes": [
    {
      "primitives": [
        {
          "attributes": {
            "POSITION": 0,
            "TEXCOORD_0": 1
          },
          "indices": 2,
          "material": 0,
          "mode": 1
        }
      ]
    },
    {
      "primitives": [
        {
          "attributes": {
            "NORMAL": 4,
            "POSITION": 3,
            "TANGENT": 5,
            "TEXCOORD_0": 6
          },
          "indices": 7,
          "material": 0,
          "mode": 4
        }
      ]
    },
    {
      "primitives": [
        {
          "attributes": {
            "NORMAL": 9,
            "POSITION": 8,
            "TANGENT": 10,
            "TEXCOORD_0": 11
          },
          "indices": 12,
          "material": 0,
          "mode": 4
        }
      ]
    }
  ],
  "nodes": [
    {
      "children": [
        1
      ],
      "name": "RootNode (gltf orientation matrix)",
      "rotation": [
        -0.70710678118654746,
        -0,
        -0,
        0.70710678118654757
      ]
    },
    {
      "children": [
        2
      ],
      "name": "RootNode (model correction matrix)"
    },
    {
      "children": [
        3,
        4,
        5
      ],
      "name": "Pitt_base.obj.cleaner"
    },
    {
      "mesh": 0,
      "name": ""
    },
    {
      "mesh": 1,
      "name": ""
    },
    {
      "mesh": 2,
      "name": ""
    }
  ],
  "samplers": [
    {
      "magFilter": 9729,
      "minFilter": 9987,
      "wrapS": 10497,
      "wrapT": 10497
    }
  ],
  "scene": 0,
  "scenes": [
    {
      "name": "OSG_Scene",
      "nodes": [
        0
      ]
    }
  ],
  "textures": [
    {
      "sampler": 0,
      "source": 0
    }
  ]
}

