{
  "accessors": [
    {
      "bufferView": 2,
      "componentType": 5126,
      "count": 12248,
      "max": [
        133.38803100585938,
        305.42340087890625,
        520.5970458984375
      ],
      "min": [
        -133.38801574707031,
        -305.42343139648438,
        -0.099150002002716064
      ],
      "type": "VEC3"
    },
    {
      "bufferView": 2,
      "byteOffset": 146976,
      "componentType": 5126,
      "count": 12248,
      "max": [
        0.99982964992523193,
        0.9995732307434082,
        1
      ],
      "min": [
        -0.99947184324264526,
        -0.99957716464996338,
        -1
      ],
      "type": "VEC3"
    },
    {
      "bufferView": 3,
      "componentType": 5126,
      "count": 12248,
      "max": [
        0.99998104572296143,
        1,
        0.9993242621421814,
        1
      ],
      "min": [
        -0.99966639280319214,
        -0.99998986721038818,
        -0.99966037273406982,
        -1
      ],
      "type": "VEC4"
    },
    {
      "bufferView": 1,
      "componentType": 5126,
      "count": 12248,
      "max": [
        1.9970699548721313,
        0.99752998352050781
      ],
      "min": [
        0.0018400000408291817,
        0.0078099998645484447
      ],
      "type": "VEC2"
    },
    {
      "bufferView": 0,
      "componentType": 5125,
      "count": 48075,
      "max": [
        12247
      ],
      "min": [
        0
      ],
      "type": "SCALAR"
    }
  ],
  "asset": {
    "extras": {
      "author": "Skin-Tracker (https://sketchfab.com/stairwave)",
      "license": "CC-BY-4.0 (http://creativecommons.org/licenses/by/4.0/)",
      "source": "https://sketchfab.com/models/92386c23092240a9b0948867ca88aebc",
      "title": "PUBG Green Parachute"
    },
    "generator": "Sketchfab-3.23.2",
    "version": "2.0"
  },
  "bufferViews": [
    {
      "buffer": 0,
      "byteLength": 192300,
      "byteOffset": 0,
      "name": "floatBufferViews",
      "target": 34963
    },
    {
      "buffer": 0,
      "byteLength": 97984,
      "byteOffset": 192300,
      "byteStride": 8,
      "name": "floatBufferViews",
      "target": 34962
    },
    {
      "buffer": 0,
      "byteLength": 293952,
      "byteOffset": 290284,
      "byteStride": 12,
      "name": "floatBufferViews",
      "target": 34962
    },
    {
      "buffer": 0,
      "byteLength": 195968,
      "byteOffset": 584236,
      "byteStride": 16,
      "name": "floatBufferViews",
      "target": 34962
    }
  ],
  "buffers": [
    {
      "byteLength": 780204,
      "uri": "scene.bin"
    }
  ],
  "images": [
    {
      "uri": "textures/EX_ParachutePlayer_Mesh_normal.png"
    },
    {
      "uri": "textures/EX_ParachutePlayer_Mesh_baseColor.png"
    }
  ],
  "materials": [
    {
      "doubleSided": true,
      "emissiveFactor": [
        0,
        0,
        0
      ],
      "name": "EX_ParachutePlayer_Mesh",
      "normalTexture": {
        "index": 0,
        "scale": 1,
        "texCoord": 0
      },
      "pbrMetallicRoughness": {
        "baseColorFactor": [
          1,
          1,
          1,
          1
        ],
        "baseColorTexture": {
          "index": 1,
          "texCoord": 0
        },
        "metallicFactor": 0,
        "roughnessFactor": 1
      }
    }
  ],
  "meshes": [
    {
      "name": "Parachute_skinned.mo_0",
      "primitives": [
        {
          "attributes": {
            "NORMAL": 1,
            "POSITION": 0,
            "TANGENT": 2,
            "TEXCOORD_0": 3
          },
          "indices": 4,
          "material": 0,
          "mode": 4
        }
      ]
    }
  ],
  "nodes": [
    {
      "children": [
        1
      ],
      "name": "RootNode (gltf orientation matrix)",
      "rotation": [
        -0.70710678118654746,
        -0,
        -0,
        0.70710678118654757
      ]
    },
    {
      "children": [
        2
      ],
      "matrix": [
        0,
        1,
        0,
        0,
        -1,
        0,
        0,
        0,
        0,
        0,
        1,
        0,
        -3.7454999528563349e-06,
        -9.8745003924705088e-06,
        0,
        1
      ],
      "name": "RootNode (model correction matrix)"
    },
    {
      "children": [
        3
      ],
      "name": "Root"
    },
    {
      "children": [
        4
      ],
      "matrix": [
        0.044630000000000017,
        -0,
        0,
        0,
        0,
        0.044630000000000017,
        0,
        0,
        0,
        0,
        0.044630000000000017,
        0,
        0,
        0,
        -11.224399999999999,
        1
      ],
      "name": "Parachute_skinned.mo"
    },
    {
      "mesh": 0,
      "name": "Parachute_skinned.mo_0"
    }
  ],
  "samplers": [
    {
      "magFilter": 9729,
      "minFilter": 9987,
      "wrapS": 10497,
      "wrapT": 10497
    }
  ],
  "scene": 0,
  "scenes": [
    {
      "name": "OSG_Scene",
      "nodes": [
        0
      ]
    }
  ],
  "textures": [
    {
      "sampler": 0,
      "source": 0
    },
    {
      "sampler": 0,
      "source": 1
    }
  ]
}

